<svg id="Layer_1" data-name="Layer 1" xmlns="http://www.w3.org/2000/svg" xmlns:xlink="http://www.w3.org/1999/xlink" viewBox="0 0 474 473"><defs><linearGradient id="linear-gradient" x1="265.94" y1="319" x2="265.94" y2="124.59" gradientUnits="userSpaceOnUse"><stop offset="0" stop-color="#8d8a89"/><stop offset="1" stop-color="#dadada"/></linearGradient><linearGradient id="linear-gradient-2" x1="300.31" y1="299.18" x2="226.69" y2="171.67" gradientUnits="userSpaceOnUse"><stop offset="0" stop-color="#635aff"/><stop offset="0" stop-color="#3b515f"/><stop offset="1" stop-color="#282f39"/></linearGradient><linearGradient id="linear-gradient-3" x1="225.08" y1="230.7" x2="205.79" y2="197.3" gradientUnits="userSpaceOnUse"><stop offset="0" stop-color="#635aff"/><stop offset="1" stop-color="#ad95e9"/></linearGradient><linearGradient id="linear-gradient-4" x1="300.08" y1="230.7" x2="280.79" y2="197.3" xlink:href="#linear-gradient-3"/></defs><polygon points="0 304 161 0 437 29 474 295 231 473 0 304" style="fill:#f1f6fb"/><path d="M161.72,269c0,2.26-2.39,4.09-5.34,4.09h-2c-2.94,0-5.33-1.83-5.33-4.09V198.64c0-2.27,2.39-4.1,5.33-4.1h2c3,0,5.34,1.83,5.34,4.1Z" transform="translate(-13 -13.5)" style="fill:#bcbcbc"/><path d="M382.84,269c0,2.26-2.39,4.09-5.34,4.09h-2c-2.95,0-5.34-1.83-5.34-4.09V198.64c0-2.27,2.39-4.1,5.34-4.1h2c2.95,0,5.34,1.83,5.34,4.1Z" transform="translate(-13 -13.5)" style="fill:#bcbcbc"/><circle cx="185.83" cy="81.83" r="6.71" transform="translate(62.13 238.55) rotate(-80.73)" style="fill:#bcbcbc"/><polygon points="176.7 121.54 168.96 121.54 170.84 68.33 174.48 68.33 176.7 121.54" style="fill:#bcbcbc"/><path d="M199.64,164.71a4.37,4.37,0,0,1-4.6,4.09H176.62a4.37,4.37,0,0,1-4.6-4.09v-36a4.37,4.37,0,0,1,4.6-4.1H195a4.37,4.37,0,0,1,4.6,4.1Z" transform="translate(-13 -13.5)" style="fill:#bcbcbc"/><circle cx="346.05" cy="81.83" r="6.71" transform="translate(173.32 386.03) rotate(-76.61)" style="fill:#bcbcbc"/><polygon points="336.91 121.54 329.18 121.54 331.06 68.33 334.69 68.33 336.91 121.54" style="fill:#bcbcbc"/><path d="M359.86,164.71a4.37,4.37,0,0,1-4.61,4.09H336.84a4.37,4.37,0,0,1-4.61-4.09v-36a4.38,4.38,0,0,1,4.61-4.1h18.41a4.38,4.38,0,0,1,4.61,4.1Z" transform="translate(-13 -13.5)" style="fill:#bcbcbc"/><path d="M375.69,193.84c-1.93-38.46-50.32-69.25-109.75-69.25s-107.83,30.79-109.76,69.25a10.93,10.93,0,0,0-.06,1.15V305.22c0,7.61,8,13.78,17.81,13.78h184c9.84,0,17.82-6.17,17.82-13.78V195A10.92,10.92,0,0,0,375.69,193.84Z" transform="translate(-13 -13.5)" style="fill:url(#linear-gradient)"/><path d="M335.15,277.05a13,13,0,0,0,13-13V221.45c0-.3,0-.6-.05-.9-1.44-30.06-37.68-54.12-82.17-54.12s-80.73,24.06-82.18,54.12c0,.3,0,.6,0,.9V264a13,13,0,0,0,13,13Z" transform="translate(-13 -13.5)" style="fill:url(#linear-gradient-2)"/><rect x="203.94" y="193.5" width="23" height="41" rx="11.5" style="fill:url(#linear-gradient-3)"/><rect x="278.94" y="193.5" width="23" height="41" rx="11.5" style="fill:url(#linear-gradient-4)"/></svg>