<svg id="Layer_1" data-name="Layer 1" xmlns="http://www.w3.org/2000/svg" xmlns:xlink="http://www.w3.org/1999/xlink" viewBox="0 0 500 500"><defs><linearGradient id="linear-gradient" x1="261.77" y1="413.52" x2="471.57" y2="292.39" gradientUnits="userSpaceOnUse"><stop offset="0" stop-color="#635aff"/><stop offset="0.4" stop-color="#ad95e9"/></linearGradient><linearGradient id="linear-gradient-2" x1="25.88" y1="259.19" x2="304.98" y2="98.05" xlink:href="#linear-gradient"/></defs><path d="M244,381.8a5.81,5.81,0,0,0,6.48,5l10.51-1.38a8.15,8.15,0,0,1,8.1,4.52l18.7,31.47a8.09,8.09,0,0,1,0,9.19l-6.17,8a5.8,5.8,0,0,0,1.07,8.1L302,461.58a5.84,5.84,0,0,0,8.14-1.08l6.67-8.75a8.42,8.42,0,0,1,9-2.59l30.56,7.77a8.12,8.12,0,0,1,6.48,6.57l1.42,10.77a5.78,5.78,0,0,0,6.47,5L394.9,476a5.8,5.8,0,0,0,5-6.46l-1.42-10.77a8.38,8.38,0,0,1,4.5-8.12l31.77-18.85a7.91,7.91,0,0,1,9.12,0l8.55,6.55a5.79,5.79,0,0,0,8.09-1.06l14.87-19.38a5.76,5.76,0,0,0-1.07-8.1l-9.3-7.17a8.33,8.33,0,0,1-2.62-8.93L470,363.45a8.05,8.05,0,0,1,6.57-6.48L488,355.46A5.76,5.76,0,0,0,493,349l-3.19-24.21a5.79,5.79,0,0,0-6.45-5l-11.42,1.51a8.27,8.27,0,0,1-8.12-4.5l-18.42-31.27a8,8,0,0,1,0-9.16l6.85-8.86a5.81,5.81,0,0,0-1.07-8.09l-19.4-14.86a5.75,5.75,0,0,0-8.07,1.06l-7.32,9.48a8.24,8.24,0,0,1-8.91,2.54l-30.9-7.85a8.15,8.15,0,0,1-6.43-6.58L368.58,232a5.81,5.81,0,0,0-6.49-5l-24.22,3.19a5.8,5.8,0,0,0-5,6.47l1.49,11.22a8.22,8.22,0,0,1-4.56,8.07l-31,18.27a8.07,8.07,0,0,1-9.16,0l-8.38-6.47a5.84,5.84,0,0,0-8.11,1.06l-14.87,19.41a5.73,5.73,0,0,0,1.06,8.07l8.95,6.85a8.36,8.36,0,0,1,2.52,8.92l-8,31.19a8.16,8.16,0,0,1-6.61,6.49l-10.51,1.38a5.8,5.8,0,0,0-5,6.47Zm117.51-69.46a41.08,41.08,0,1,1-35.35,46.09A41.06,41.06,0,0,1,361.46,312.34Z" style="fill:url(#linear-gradient)"/><path d="M20,248.75a7.42,7.42,0,0,0,9.48,4.41l12.73-4.64a10.49,10.49,0,0,1,11.38,3.38L85.7,286a10.32,10.32,0,0,1,2.52,11.49l-5.46,11.75a7.42,7.42,0,0,0,3.59,9.83l28.32,13.18a7.42,7.42,0,0,0,9.86-3.6l5.92-12.79a10.79,10.79,0,0,1,10.47-5.73l40.36,1.21a10.39,10.39,0,0,1,9.92,6.41l4.77,13a7.42,7.42,0,0,0,9.45,4.41l29.39-10.73a7.41,7.41,0,0,0,4.41-9.46L234.46,302a10.69,10.69,0,0,1,3.37-11.4l34.45-32.38a10.15,10.15,0,0,1,11.39-2.57l12.5,5.83a7.43,7.43,0,0,0,9.83-3.59l13.18-28.35a7.37,7.37,0,0,0-3.6-9.82L302,213.35a10.63,10.63,0,0,1-5.77-10.44L297.36,163a10.29,10.29,0,0,1,6.4-9.93L317.61,148a7.39,7.39,0,0,0,4.37-9.47l-10.72-29.35a7.42,7.42,0,0,0-9.45-4.48L288,109.75a10.55,10.55,0,0,1-11.39-3.35l-31.7-33.95A10.16,10.16,0,0,1,242.25,61l6.09-13a7.41,7.41,0,0,0-3.58-9.81L216.38,25.06a7.33,7.33,0,0,0-9.77,3.57L200.1,42.5a10.57,10.57,0,0,1-10.43,5.65l-40.8-1.21A10.49,10.49,0,0,1,139,40.52l-5-13.61a7.41,7.41,0,0,0-9.48-4.4L95.18,33.23a7.41,7.41,0,0,0-4.41,9.47l5,13.61A10.55,10.55,0,0,1,92.3,67.65L58.65,99.09a10.32,10.32,0,0,1-11.46,2.53L34.93,95.86a7.48,7.48,0,0,0-9.84,3.59L11.9,127.83a7.35,7.35,0,0,0,3.59,9.8l13.07,6.06a10.72,10.72,0,0,1,5.64,10.45l-1.31,41.19a10.45,10.45,0,0,1-6.47,9.94l-12.75,4.66a7.41,7.41,0,0,0-4.38,9.47Zm127.5-119.46a52.58,52.58,0,1,1-31.35,67.42A52.56,52.56,0,0,1,147.49,129.29Z" style="fill:url(#linear-gradient-2)"/></svg>