<svg id="Layer_1" data-name="Layer 1" xmlns="http://www.w3.org/2000/svg" xmlns:xlink="http://www.w3.org/1999/xlink" viewBox="0 0 166.6 79.91"><defs><linearGradient id="linear-gradient" x1="27.43" y1="88.46" x2="84.26" y2="31.62" gradientUnits="userSpaceOnUse"><stop offset="0" stop-color="#ff9500"/><stop offset="0.09" stop-color="#fb950a"/><stop offset="0.25" stop-color="#f29525"/><stop offset="0.45" stop-color="#e39551"/><stop offset="0.68" stop-color="#cd958d"/><stop offset="0.95" stop-color="#b295da"/><stop offset="1" stop-color="#ad95e9"/></linearGradient><linearGradient id="linear-gradient-2" x1="136.36" y1="38.63" x2="253.04" y2="155.31" gradientTransform="matrix(1, 0, 0, -1, 0, 120)" gradientUnits="userSpaceOnUse"><stop offset="0" stop-color="#635aff"/><stop offset="0.4" stop-color="#ad95e9"/></linearGradient></defs><path d="M84.73,52.79,98,51.22,98.56,57l-13.24.85Zm-7.59-14,7.35-7,4,4.53-8.29,6.08Zm-14.4-6.75,2.8-13.18,5.5,1.4L67.35,33.37ZM59.17,82.19c-33.82.14-31.51-45.38-2.26-45.51C86.72,36.55,87.67,82.07,59.17,82.19ZM57,42.54c-22.67.1-24,34.33,1.72,34.22C80.4,76.67,80.08,42.44,57,42.54ZM41.51,24.06l6-1.77,3.2,9.16L46.16,33ZM22.42,37.27l2.94-5.35,11,8L34.2,44.21Zm6.84,24.39L19,62.45l-.16-6.38,10,.79ZM37.19,78.6,27.11,88.14,23.3,82.9l10.86-8Zm17,9.92-.55,10.27-6.86-.72L49.7,87.78Zm25.22,6.53-5.86,2.8-6-12,5.11-2.25Zm13.5-19.4-2.71,5.27-9.72-6.24,2.36-4.18Z" transform="translate(-18.88 -18.88)" style="fill-rule:evenodd;fill:url(#linear-gradient)"/><path d="M129.29,67.06c-6.37-23.79,12-38.87,30.14-38.74-25.86,19.44-2,58.68,26,46.8C173.23,94.79,137.27,96.85,129.29,67.06Z" transform="translate(-18.88 -18.88)" style="fill-rule:evenodd;fill:url(#linear-gradient-2)"/></svg>