<svg xmlns="http://www.w3.org/2000/svg" xmlns:xlink="http://www.w3.org/1999/xlink" viewBox="0 0 759.1 391.97"><defs><radialGradient id="radial-gradient" cx="379.51" cy="195.86" r="771.98" gradientUnits="userSpaceOnUse"><stop offset="0" stop-color="#597aef"/><stop offset="1" stop-color="#8fc0fb"/></radialGradient><radialGradient id="radial-gradient-2" cx="479.02" cy="254.73" fx="663.5924880596273" fy="192.6726602990373" r="645.12" gradientTransform="matrix(-1, 0, 0, 1, 1067.9, 0)" gradientUnits="userSpaceOnUse"><stop offset="0.13" stop-color="#597aef"/><stop offset="0.24" stop-color="#6c93f3"/><stop offset="0.37" stop-color="#7ca7f7"/><stop offset="0.52" stop-color="#87b5f9"/><stop offset="0.7" stop-color="#8dbdfb"/><stop offset="1" stop-color="#8fc0fb"/></radialGradient><radialGradient id="radial-gradient-3" cx="170.21" cy="254.73" fx="354.78515842527054" fy="192.6726602990371" r="645.12" gradientTransform="matrix(1, 0, 0, 1, 0, 0)" xlink:href="#radial-gradient-2"/></defs><g id="Layer_2" data-name="Layer 2"><g id="Layer_1-2" data-name="Layer 1"><path d="M378.23,391.72c-8.91-.37-16.28-5-20.76-13.83q-24.45-48.47-48.72-97Q267,197.63,225.34,114.36c-12.78-25.51-25.8-50.9-38.34-76.52C178.29,20.05,185.89,2.51,203.87.5c7.42-.83,15.46,2.19,23,4.33,33.1,9.45,66.1,19.22,99.13,28.87,15.6,4.56,31,10.18,46.9,13.2,7.91,1.5,17-.8,25.07-3.07,33.82-9.5,67.46-19.65,101.17-29.53,15.14-4.43,30.32-8.69,45.44-13.15,10.51-3.11,18.83.23,25.57,8.34,6.54,7.88,7.06,16.52,2.59,25.49q-21.65,43.46-43.44,86.83-41.7,83.26-83.37,166.54c-14.69,29.36-29.26,58.78-44,88.09C397.26,385.59,390.19,391.53,378.23,391.72Z" style="fill:url(#radial-gradient)"/><path d="M448.12,372.54a20.43,20.43,0,0,0,25.95,18.28c40.87-11.93,81.75-23.88,122.72-35.47a26.91,26.91,0,0,1,14,0q60.81,17.33,121.41,35.37c8.73,2.58,16.22,1.26,22.17-5.69s5.93-14.86,1.93-22.83Q689,228.13,621.76,94.05c-3.71-7.38-9.35-11.94-18.1-11.9s-14.32,4.65-18,12q-58.51,117.17-117,234.35C463.09,339.7,457.39,350.79,452,362,450.32,365.35,449.38,369,448.12,372.54Z" style="fill:url(#radial-gradient-2)"/><path d="M311,372.54A20.42,20.42,0,0,1,285,390.82c-40.87-11.93-81.75-23.88-122.72-35.47a26.91,26.91,0,0,0-14,0Q87.53,372.71,26.93,390.75c-8.74,2.58-16.22,1.26-22.18-5.69s-5.92-14.86-1.93-22.83Q70.07,228.13,137.34,94.05c3.71-7.38,9.35-11.94,18.1-11.9s14.32,4.65,18,12q58.52,117.17,117,234.35C296,339.7,301.71,350.79,307.15,362,308.77,365.35,309.72,369,311,372.54Z" style="fill:url(#radial-gradient-3)"/></g></g></svg>