<svg id="Layer_1" data-name="Layer 1" xmlns="http://www.w3.org/2000/svg" xmlns:xlink="http://www.w3.org/1999/xlink" viewBox="0 0 150 150"><defs><linearGradient id="linear-gradient" x1="75" y1="126" x2="75" y2="30.34" gradientUnits="userSpaceOnUse"><stop offset="0" stop-color="#8d8a89"/><stop offset="1" stop-color="#dadada"/></linearGradient><linearGradient id="linear-gradient-2" x1="91.91" y1="116.25" x2="55.69" y2="53.51" gradientUnits="userSpaceOnUse"><stop offset="0" stop-color="#635aff"/><stop offset="0" stop-color="#3b515f"/><stop offset="1" stop-color="#282f39"/></linearGradient><linearGradient id="linear-gradient-3" x1="62.03" y1="90.48" x2="51.06" y2="71.48" gradientUnits="userSpaceOnUse"><stop offset="0" stop-color="#635aff"/><stop offset="1" stop-color="#ad95e9"/></linearGradient><linearGradient id="linear-gradient-4" x1="98.94" y1="90.48" x2="87.97" y2="71.48" xlink:href="#linear-gradient-3"/></defs><path d="M23.72,101.41c0,1.11-1.18,2-2.63,2h-1a2.38,2.38,0,0,1-2.62-2V66.77a2.37,2.37,0,0,1,2.62-2h1c1.45,0,2.63.9,2.63,2Z" style="fill:#bcbcbc"/><path d="M132.52,101.41a2.38,2.38,0,0,1-2.62,2h-1c-1.45,0-2.63-.91-2.63-2V66.77c0-1.11,1.18-2,2.63-2h1a2.37,2.37,0,0,1,2.62,2Z" style="fill:#bcbcbc"/><circle cx="35.58" cy="9.3" r="3.3" transform="translate(20.67 42.92) rotate(-80.73)" style="fill:#bcbcbc"/><polygon points="37.49 35.48 33.68 35.48 34.6 9.3 36.39 9.3 37.49 35.48" style="fill:#bcbcbc"/><path d="M42.38,50.08a2.15,2.15,0,0,1-2.27,2H31.05a2.14,2.14,0,0,1-2.26-2V32.36a2.15,2.15,0,0,1,2.26-2h9.06a2.16,2.16,0,0,1,2.27,2Z" style="fill:#bcbcbc"/><circle cx="114.42" cy="9.3" r="3.3" transform="translate(78.88 118.46) rotate(-76.61)" style="fill:#bcbcbc"/><polygon points="116.32 35.48 112.51 35.48 113.44 9.3 115.23 9.3 116.32 35.48" style="fill:#bcbcbc"/><path d="M121.21,50.08a2.14,2.14,0,0,1-2.26,2h-9.06a2.15,2.15,0,0,1-2.27-2V32.36a2.16,2.16,0,0,1,2.27-2H119a2.15,2.15,0,0,1,2.26,2Z" style="fill:#bcbcbc"/><path d="M129,64.41c-.95-18.92-24.77-34.07-54-34.07S21.94,45.49,21,64.41A5.44,5.44,0,0,0,21,65v54.24C21,123,24.89,126,29.73,126h90.54c4.84,0,8.77-3,8.77-6.78V65A5.44,5.44,0,0,0,129,64.41Z" style="fill:url(#linear-gradient)"/><path d="M109.06,105.36a6.41,6.41,0,0,0,6.4-6.41V78a3.15,3.15,0,0,0,0-.44C114.72,62.77,96.89,50.93,75,50.93S35.28,62.77,34.57,77.56a3.15,3.15,0,0,0,0,.44V99a6.41,6.41,0,0,0,6.4,6.41Z" style="fill:url(#linear-gradient-2)"/><rect x="50.89" y="70.89" width="11.32" height="20.17" rx="1.62" style="fill:url(#linear-gradient-3)"/><rect x="87.79" y="70.89" width="11.32" height="20.17" rx="1.62" style="fill:url(#linear-gradient-4)"/></svg>