<?xml version="1.0" encoding="utf-8" ?>
<!-- Generator: Adobe Illustrator 24.0.0, SVG Export Plug-In . SVG Version: 6.00 Build 0)  -->
<svg version="1.1" id="Layer_1" xmlns="http://www.w3.org/2000/svg" xmlns:xlink="http://www.w3.org/1999/xlink" x="0px" y="0px"
     viewBox="0 0 492 492" style="enable-background:new 0 0 492 492;" xml:space="preserve">
<style type="text/css">
	.st0{fill:#FFFFFF;}
</style>
<g>
<g>
<path class="st0" d="M300.19,246L484.14,62.04c5.06-5.06,7.85-11.82,7.86-19.02c0-7.21-2.79-13.97-7.86-19.03L468.02,7.87
			c-5.07-5.08-11.82-7.86-19.04-7.86c-7.2,0-13.96,2.78-19.02,7.86L246.01,191.82L62.05,7.87C56.99,2.8,50.23,0.02,43.02,0.02
			c-7.2,0-13.96,2.78-19.02,7.86L7.87,23.99c-10.5,10.5-10.5,27.57,0,38.05L191.83,246L7.87,429.95
			c-5.06,5.07-7.85,11.83-7.85,19.03s2.79,13.96,7.85,19.03L24,484.13c5.06,5.07,11.82,7.86,19.02,7.86
			c7.21,0,13.97-2.78,19.03-7.86L246,300.18l183.95,183.95c5.07,5.07,11.82,7.86,19.02,7.86h0.01c7.2,0,13.96-2.78,19.03-7.86
			l16.12-16.12c5.06-5.06,7.85-11.82,7.85-19.03s-2.79-13.96-7.85-19.03L300.19,246z" />
	</g>
</g>
</svg>