<svg id="Layer_1" data-name="Layer 1" xmlns="http://www.w3.org/2000/svg" xmlns:xlink="http://www.w3.org/1999/xlink" viewBox="0 0 1060.34 271.13"><defs><linearGradient id="linear-gradient" x1="9.83" y1="225.71" x2="1070.17" y2="225.71" gradientUnits="userSpaceOnUse"><stop offset="0" stop-color="#5ef44b"/><stop offset="0.3" stop-color="#4cc0e9"/><stop offset="0.7" stop-color="#c46fe0"/><stop offset="1" stop-color="#550a92"/></linearGradient></defs><path d="M507.16,167.6H274.77l20.72-77.46H450.42Q527.9,90.14,507.16,167.6ZM269.54,187l-46.68,174.3H377.79q77.47,0,98.19-77.47l26-96.83ZM624.72,90.14q-77.47,0-98.19,77.46H758.92l20.74-77.46Zm28.8,120.29-22.6,73.37H592.19L618.14,187H521.3L495.35,283.8q-20.73,77.46,56.75,77.47H707l43.32-150.84ZM973.33,90.14l-54.24,58.09L895.86,90.14H799l45.89,154.93L813.74,361.25h96.83l31.18-116.18L1070.17,90.14ZM229.44,264.43,250.16,187H56.5L9.83,361.27H203.49l20.73-77.47H127.38l5.23-19.37ZM82.46,90.14,61.73,167.6H255.4l20.72-77.46Z" transform="translate(-9.83 -90.14)" style="fill:url(#linear-gradient)"/></svg>