<svg fill="none" height="24" viewBox="0 0 24 24" width="24" xmlns="http://www.w3.org/2000/svg"><path d="m3 17.46v3.04c0 .28.22.5.5.5h3.04c.13 0 .26-.05.35-.15l10.92-10.91-3.75-3.75-10.91 10.91c-.1.1-.15.22-.15.36zm17.71-10.42c.0927-.09251.1662-.2024.2164-.32337.0502-.12098.076-.25066.076-.38163s-.0258-.26065-.076-.38162-.1237-.23086-.2164-.32338l-2.34-2.34c-.0925-.0927-.2024-.16625-.3234-.21643-.1209-.05018-.2506-.07601-.3816-.07601s-.2607.02583-.3816.07601c-.121.05018-.2309.12373-.3234.21643l-1.83 1.83 3.75 3.75z" fill="#000"/></svg>