<svg fill="none" height="24" viewBox="0 0 24 24" width="24" xmlns="http://www.w3.org/2000/svg"><path d="m13 10h-10c-.55 0-1 .45-1 1s.45 1 1 1h10c.55 0 1-.45 1-1s-.45-1-1-1zm0-4h-10c-.55 0-1 .45-1 1s.45 1 1 1h10c.55 0 1-.45 1-1s-.45-1-1-1zm-10 10h6c.55 0 1-.45 1-1s-.45-1-1-1h-6c-.55 0-1 .45-1 1s.45 1 1 1zm19.21-3.79.09.09c.39.39.39 1.02 0 1.41l-5.58 5.59c-.0925.0927-.2024.1663-.3234.2164-.1209.0502-.2506.076-.3816.076s-.2607-.0258-.3816-.076c-.121-.0501-.2309-.1237-.3234-.2164l-3.09-3.09c-.0927-.0925-.1663-.2024-.2164-.3234-.0502-.1209-.076-.2506-.076-.3816s.0258-.2607.076-.3816c.0501-.121.1237-.2309.2164-.3234l.09-.09c.0925-.0927.2024-.1663.3234-.2164.1209-.0502.2506-.076.3816-.076s.2607.0258.3816.076c.121.0501.2309.1237.3234.2164l2.3 2.3 4.78-4.79c.38-.4 1.02-.4 1.41-.01z" fill="#000"/></svg>